<svg xmlns="http://www.w3.org/2000/svg" viewBox="0 0 64 64" fill="none">
  <path
    d="M11 30.5C11 18.6 20.8 9 33 9c12.1 0 22 9.6 22 21.5S45.1 52 33 52c-3.9 0-7.6-1-10.8-2.7L10 54l4.2-10.8A21 21 0 0 1 11 30.5Z"
    stroke="#0e7484"
    stroke-width="5"
    stroke-linecap="round"
    stroke-linejoin="round"
  />
  <path
    d="M47 2c1.2 6.6 5.4 10.8 12 12-6.6 1.2-10.8 5.4-12 12-1.2-6.6-5.4-10.8-12-12 6.6-1.2 10.8-5.4 12-12Z"
    fill="#0b0c0f"
  />
  <circle cx="25" cy="31" r="2.5" fill="#0e7484" />
  <circle cx="33" cy="31" r="2.5" fill="#0e7484" />
  <circle cx="41" cy="31" r="2.5" fill="#0e7484" />
</svg>
